HIERARCHY
ROOT Pelvis
{
	OFFSET 0.000000 0.000000 0.000000
	CHANNELS 6 Xposition Yposition Zposition Xrotation Yrotation Zrotation
	JOINT LeftUpLeg_virtual
	{
		OFFSET 0.000000 0.000000 0.000000
		CHANNELS 3 Xrotation Yrotation Zrotation
		JOINT LeftUpLeg
		{
			OFFSET 18.735201 -5.666702 -4.541200
			CHANNELS 3 Xrotation Yrotation Zrotation
			JOINT LeftLeg
			{
				OFFSET -0.021200 -31.938179 0.493100
				CHANNELS 3 Xrotation Yrotation Zrotation
				JOINT LeftFoot
				{
					OFFSET 0.021200 -31.938179 -4.336299
					CHANNELS 3 Xrotation Yrotation Zrotation
					JOINT LeftToeBase
					{
						OFFSET 0.943001 -26.722000 15.023500
						CHANNELS 3 Xrotation Yrotation Zrotation
						End Site
						{
							OFFSET 0 0 0
						}
					}
				}
			}
		}
	}
	JOINT RightUpLeg_virtual
	{
		OFFSET 0.000000 0.000000 0.000000
		CHANNELS 3 Xrotation Yrotation Zrotation
		JOINT RightUpLeg
		{
			OFFSET -18.735201 -5.666702 -4.541200
			CHANNELS 3 Xrotation Yrotation Zrotation
			JOINT RightLeg
			{
				OFFSET 0.018946 -31.938133 0.493100
				CHANNELS 3 Xrotation Yrotation Zrotation
				JOINT RightFoot
				{
					OFFSET -0.018946 -31.938126 -4.336299
					CHANNELS 3 Xrotation Yrotation Zrotation
					JOINT RightToeBase
					{
						OFFSET -0.943001 -26.722004 15.023500
						CHANNELS 3 Xrotation Yrotation Zrotation
						End Site
						{
							OFFSET 0 0 0
						}
					}
				}
			}
		}
	}
	JOINT Hips_virtual
	{
		OFFSET 0.000000 0.000000 0.000000
		CHANNELS 3 Xrotation Yrotation Zrotation
		JOINT Hips
		{
			OFFSET -0.000000 -0.000000 -0.000000
			CHANNELS 3 Xrotation Yrotation Zrotation
			JOINT Spine
			{
				OFFSET 0.000000 10.199997 -0.299500
				CHANNELS 3 Xrotation Yrotation Zrotation
				JOINT Spine1
				{
					OFFSET 0.000000 11.900002 -1.516600
					CHANNELS 3 Xrotation Yrotation Zrotation
					JOINT Spine2
					{
						OFFSET 0.000000 13.600006 -2.842500
						CHANNELS 3 Xrotation Yrotation Zrotation
						JOINT Neck_virtual
						{
							OFFSET 0.000000 0.000000 0.000000
							CHANNELS 3 Xrotation Yrotation Zrotation
							JOINT Neck
							{
								OFFSET 0.000000 9.624100 -2.890100
								CHANNELS 3 Xrotation Yrotation Zrotation
								JOINT Head
								{
									OFFSET 0.000000 14.068802 -1.351900
									CHANNELS 3 Xrotation Yrotation Zrotation
									End Site
									{
										OFFSET 0 0 0
									}
								}
							}
						}
						JOINT LeftShoulder_virtual
						{
							OFFSET 0.000000 0.000000 0.000000
							CHANNELS 3 Xrotation Yrotation Zrotation
							JOINT LeftShoulder
							{
								OFFSET 15.263000 10.923401 -0.547700
								CHANNELS 3 Xrotation Yrotation Zrotation
								JOINT LeftArm
								{
									OFFSET 25.438599 -2.830597 -13.032500
									CHANNELS 3 Xrotation Yrotation Zrotation
									JOINT LeftForeArm
									{
										OFFSET 29.960503 0.000000 0.000000
										CHANNELS 3 Xrotation Yrotation Zrotation
										JOINT LeftHand
										{
											OFFSET 27.849251 0.000000 0.000000
											CHANNELS 3 Xrotation Yrotation Zrotation
											End Site
											{
												OFFSET 0 0 0
											}
										}
									}
								}
							}
						}
						JOINT RightShoulder_virtual
						{
							OFFSET 0.000000 0.000000 0.000000
							CHANNELS 3 Xrotation Yrotation Zrotation
							JOINT RightShoulder
							{
								OFFSET -15.263000 10.923401 -0.547700
								CHANNELS 3 Xrotation Yrotation Zrotation
								JOINT RightArm
								{
									OFFSET -25.438599 -2.830597 -13.032500
									CHANNELS 3 Xrotation Yrotation Zrotation
									JOINT RightForeArm
									{
										OFFSET -29.960503 0.000000 0.000000
										CHANNELS 3 Xrotation Yrotation Zrotation
										JOINT RightHand
										{
											OFFSET -27.849251 0.000000 0.000000
											CHANNELS 3 Xrotation Yrotation Zrotation
											End Site
											{
												OFFSET 0 0 0
											}
										}
									}
								}
							}
						}
					}
				}
			}
		}
	}
}
MOTION
Frames: 12
Frame Time: 0.03333333
1.720072 38.527477 -18.745100 0.000000 0.000000 0.000000 14.905819 -35.589548 7.386964 -30.746346 2.651872 19.971707 124.433438 -3.908357 -8.188341 49.900379 -2.406413 -19.598502 0.000000 0.000000 0.000000 8.458912 27.515742 -4.993305 -24.015990 2.831106 -18.021512 113.696135 8.387228 -0.128697 35.333819 10.470283 22.622305 0.000000 0.000000 0.000000 18.325310 12.955487 -0.758316 28.185155 -6.160630 7.194528 26.248972 3.385870 -2.984178 15.720106 1.267333 -2.478726 0.000000 0.000000 0.000000 14.042158 1.417403 -1.066847 4.193620 -1.308909 0.946092 0.000000 0.000000 0.000000 16.630744 0.006101 -2.282000 2.964735 -27.653160 -4.354649 -44.256658 -35.954160 -50.357567 -29.102114 -86.420403 -26.176099 0.000000 0.000000 0.000000 15.234727 3.422474 -2.024144 4.787031 8.088099 -6.794422 -26.914886 31.179329 33.299798 -9.474356 61.584291 9.984212 0.000000 0.000000 0.000000 
1.599405 38.464607 -19.126637 0.000000 0.000000 0.000000 14.406346 -35.276336 7.199294 -31.246333 2.639486 19.991552 124.650911 -4.060625 -8.059184 50.071987 -2.673574 -19.624617 0.000000 0.000000 0.000000 8.061583 27.486551 -4.803414 -24.412612 2.873306 -17.882537 114.277917 8.394591 -0.146920 35.693448 10.543628 22.636966 0.000000 0.000000 0.000000 18.142839 12.759790 -0.709790 27.081324 -7.096339 7.060770 26.623995 3.149565 -3.202931 15.981224 1.116288 -2.631947 0.000000 0.000000 0.000000 14.414134 1.344675 -1.146996 4.306326 -1.314291 0.920980 0.000000 0.000000 0.000000 17.092613 0.027703 -2.459700 2.856960 -26.974119 -5.430195 -43.712715 -36.207229 -50.470884 -30.687893 -86.928207 -27.750628 0.000000 0.000000 0.000000 15.694699 3.327477 -2.124675 4.877492 7.619651 -7.140970 -26.745955 31.097561 33.769015 -9.977809 62.879090 10.580608 0.000000 0.000000 0.000000 
1.489959 38.435055 -19.498659 0.000000 0.000000 0.000000 13.911020 -34.951799 7.017465 -31.718299 2.625646 20.006519 124.811339 -4.205719 -7.921866 50.216384 -2.939465 -19.636084 0.000000 0.000000 0.000000 7.686394 27.401090 -4.580873 -24.759009 2.886648 -17.710529 114.807297 8.415907 -0.147988 36.029067 10.619329 22.686909 0.000000 0.000000 0.000000 17.932988 12.475212 -0.649946 25.973099 -8.028294 6.817381 26.955195 2.889662 -3.408745 16.204240 0.953623 -2.770624 0.000000 0.000000 0.000000 14.727630 1.264563 -1.225036 4.397074 -1.319057 0.892725 0.000000 0.000000 0.000000 17.487629 0.034633 -2.639027 2.737167 -26.259625 -6.548480 -43.057738 -36.468238 -50.669840 -32.512015 -87.404066 -29.622414 0.000000 0.000000 0.000000 16.087418 3.222249 -2.204731 4.934729 7.185752 -7.412301 -26.571343 31.008434 34.342956 -10.528125 64.165693 11.250584 0.000000 0.000000 0.000000 
1.401705 38.435677 -19.855364 0.000000 0.000000 0.000000 13.435502 -34.622635 6.848769 -32.151534 2.611577 20.019705 124.918149 -4.336776 -7.777995 50.335035 -3.194589 -19.625852 0.000000 0.000000 0.000000 7.340403 27.269739 -4.331816 -25.050998 2.873636 -17.509320 115.283129 8.451355 -0.135232 36.337931 10.698962 22.768453 0.000000 0.000000 0.000000 17.698765 12.116598 -0.582035 24.875860 -8.914307 6.468765 27.238748 2.613431 -3.592022 16.385596 0.783662 -2.888532 0.000000 0.000000 0.000000 14.978851 1.178812 -1.297442 4.465407 -1.323161 0.862936 0.000000 0.000000 0.000000 17.809413 0.025440 -2.807641 2.616719 -25.533392 -7.655464 -42.336350 -36.728198 -50.942887 -34.940891 -87.853055 -32.142532 0.000000 0.000000 0.000000 16.409403 3.110225 -2.262105 4.961453 6.798620 -7.599636 -26.394563 30.925614 35.005997 -11.116766 65.431689 11.980639 0.000000 0.000000 0.000000 
1.344718 38.462002 -20.193096 0.000000 0.000000 0.000000 12.987939 -34.292259 6.696583 -32.542826 2.598393 20.033416 124.977982 -4.450396 -7.629812 50.430090 -3.432950 -19.591669 0.000000 0.000000 0.000000 7.027447 27.110797 -4.066853 -25.289967 2.840980 -17.286905 115.704088 8.495156 -0.115204 36.620093 10.780257 22.866123 0.000000 0.000000 0.000000 17.441948 11.700886 -0.509860 23.799492 -9.714283 6.021820 27.472488 2.328609 -3.747333 16.522721 0.611236 -2.981943 0.000000 0.000000 0.000000 15.167890 1.089381 -1.362404 4.512469 -1.326409 0.832357 0.000000 0.000000 0.000000 18.054441 0.000402 -2.954550 2.505450 -24.814446 -8.702037 -41.593619 -36.970612 -51.271723 -38.562486 -88.271159 -35.881415 0.000000 0.000000 0.000000 16.661418 2.994553 -2.296406 4.964351 6.468035 -7.701533 -26.207038 30.866800 35.736827 -11.724044 66.667578 12.747992 0.000000 0.000000 0.000000 
1.327243 38.508575 -20.511127 0.000000 0.000000 0.000000 12.568579 -33.961470 6.560296 -32.896250 2.586806 20.048661 124.999729 -4.547070 -7.479883 50.503679 -3.652774 -19.536337 0.000000 0.000000 0.000000 6.747954 26.946614 -3.799385 -25.482189 2.798161 -17.054332 116.068355 8.536348 -0.096615 36.877639 10.857102 22.954930 0.000000 0.000000 0.000000 17.163326 11.244254 -0.437019 22.749989 -10.395969 5.486813 27.656049 2.042204 -3.873565 16.614264 0.440990 -3.049840 0.000000 0.000000 0.000000 15.298195 0.998182 -1.419765 4.540665 -1.328544 0.800873 0.000000 0.000000 0.000000 18.221821 -0.038694 -3.071781 2.410348 -24.115518 -9.651102 -40.870069 -37.173711 -51.637897 -44.301546 -88.645200 -41.747738 0.000000 0.000000 0.000000 16.847331 2.877736 -2.308966 4.952458 6.200297 -7.723681 -25.991779 30.851281 36.510308 -12.320292 67.866317 13.521050 0.000000 0.000000 0.000000 
1.354153 38.569355 -20.811710 0.000000 0.000000 0.000000 12.171552 -33.629727 6.436571 -33.221347 2.576857 20.065303 124.993309 -4.630406 -7.330744 50.557415 -3.855925 -19.466473 0.000000 0.000000 0.000000 6.499433 26.798823 -3.542960 -25.637288 2.755248 -16.823632 116.374471 8.561306 -0.088612 37.113875 10.920929 23.005788 0.000000 0.000000 0.000000 16.863664 10.759977 -0.366207 21.734051 -10.938580 4.878843 27.790698 1.759815 -3.972975 16.660167 0.276867 -3.093460 0.000000 0.000000 0.000000 15.375241 0.906892 -1.470367 4.553003 -1.329334 0.767846 0.000000 0.000000 0.000000 18.312644 -0.089045 -3.155239 2.334962 -23.442994 -10.481266 -40.197292 -37.314327 -52.027815 -53.409993 -88.950401 -50.982274 0.000000 0.000000 0.000000 16.972354 2.761549 -2.302489 4.935014 5.998233 -7.677470 -25.729579 30.897228 37.299694 -12.868987 69.021862 14.261319 0.000000 0.000000 0.000000 
1.426103 38.638115 -21.099089 0.000000 0.000000 0.000000 11.787937 -33.296786 6.321327 -33.530109 2.567759 20.082790 124.968037 -4.705483 -7.184566 50.592249 -4.046262 -19.390180 0.000000 0.000000 0.000000 6.277447 26.684115 -3.308507 -25.766259 2.720720 -16.605412 116.622953 8.557234 -0.098939 37.332503 10.963094 22.992440 0.000000 0.000000 0.000000 16.544892 10.257395 -0.298846 20.763756 -11.333627 4.218285 27.878814 1.485523 -4.049731 16.661429 0.121876 -3.115462 0.000000 0.000000 0.000000 15.404901 0.816871 -1.515149 4.552326 -1.328630 0.732601 0.000000 0.000000 0.000000 18.329286 -0.147403 -3.204633 2.279480 -22.798147 -11.186669 -39.595092 -37.371954 -52.434631 -66.530503 -89.157676 -64.221783 0.000000 0.000000 0.000000 17.041189 2.647122 -2.280493 4.919305 5.861694 -7.577618 -25.405193 31.018423 38.078981 -13.330782 70.127820 14.926277 0.000000 0.000000 0.000000 
1.539410 38.708916 -21.377600 0.000000 0.000000 0.000000 11.409025 -32.963436 6.211675 -33.833967 2.557955 20.101112 124.931127 -4.776878 -7.042904 50.608372 -4.227565 -19.314440 0.000000 0.000000 0.000000 6.076704 26.611829 -3.102361 -25.879635 2.699982 -16.406896 116.817777 8.515505 -0.132496 37.536824 10.977359 22.897753 0.000000 0.000000 0.000000 16.210737 9.741898 -0.235118 19.858906 -11.583545 3.529257 27.923101 1.222240 -4.108489 16.619676 -0.021874 -3.119046 0.000000 0.000000 0.000000 15.391713 0.729167 -1.554337 4.540568 -1.326386 0.694874 0.000000 0.000000 0.000000 18.274644 -0.210599 -3.222648 2.241305 -22.179103 -11.773675 -39.071148 -37.332065 -52.856935 -81.032456 -89.249044 -78.835396 0.000000 0.000000 0.000000 17.056424 2.535049 -2.246667 4.908963 5.788045 -7.439422 -25.011325 31.221232 38.825213 -13.666995 71.175079 15.472504 0.000000 0.000000 0.000000 
1.686569 38.776550 -21.649445 0.000000 0.000000 0.000000 11.028835 -32.631406 6.107144 -34.141131 2.545490 20.121416 124.886567 -4.847083 -6.906618 50.605367 -4.401770 -19.243054 0.000000 0.000000 0.000000 5.891941 26.583513 -2.925605 -25.986179 2.694874 -16.231012 116.966826 8.433788 -0.190655 37.729098 10.961695 22.717423 0.000000 0.000000 0.000000 15.866620 9.215615 -0.174333 19.045632 -11.698721 2.836245 27.925698 0.972257 -4.153365 16.536607 -0.152948 -3.107246 0.000000 0.000000 0.000000 15.337644 0.644562 -1.586993 4.518207 -1.322657 0.655073 0.000000 0.000000 0.000000 18.151721 -0.275925 -3.213746 2.215890 -21.582884 -12.256004 -38.623419 -37.187867 -53.295577 -91.081782 -89.249044 -88.993151 0.000000 0.000000 0.000000 17.017657 2.425495 -2.204335 4.903020 5.772510 -7.276449 -24.549730 31.502308 39.520041 -13.842162 72.150505 15.858482 0.000000 0.000000 0.000000 
1.857193 38.836987 -21.913000 0.000000 0.000000 0.000000 10.645456 -32.302150 6.009838 -34.455081 2.528621 20.146189 124.834985 -4.915772 -6.775959 50.582571 -4.568083 -19.175903 0.000000 0.000000 0.000000 5.718421 26.594194 -2.774722 -26.092299 2.704084 -16.076592 117.081190 8.316445 -0.271394 37.910272 10.918890 22.460372 0.000000 0.000000 0.000000 15.518774 8.678425 -0.115410 18.351767 -11.693804 2.160161 27.887536 0.737788 -4.187420 16.413541 -0.270304 -3.082489 0.000000 0.000000 0.000000 15.241473 0.563640 -1.611000 4.484067 -1.317566 0.614321 0.000000 0.000000 0.000000 17.963355 -0.341321 -3.182993 2.197627 -21.006913 -12.650002 -38.244306 -36.940819 -53.750546 -93.305117 -89.197647 -91.326002 0.000000 0.000000 0.000000 16.921418 2.318328 -2.156166 4.895980 5.808615 -7.099218 -24.029980 31.848356 40.150434 -13.825975 73.036640 16.047203 0.000000 0.000000 0.000000 
2.039176 38.887684 -22.162289 0.000000 0.000000 0.000000 10.261179 -31.975281 5.923660 -34.774153 2.506548 20.178800 124.774101 -4.980108 -6.650806 50.539449 -4.723187 -19.109454 0.000000 0.000000 0.000000 5.552059 26.634649 -2.643171 -26.202096 2.724191 -15.939484 117.173480 8.173190 -0.370105 38.080121 10.855833 22.145920 0.000000 0.000000 0.000000 15.172968 8.129024 -0.057300 17.800757 -11.583952 1.515357 27.808130 0.521327 -4.212570 16.251327 -0.373026 -3.046460 0.000000 0.000000 0.000000 15.099147 0.486855 -1.623452 4.435521 -1.311257 0.574265 0.000000 0.000000 0.000000 17.712246 -0.405359 -3.135217 2.180671 -20.449632 -12.971186 -37.924803 -36.600026 -54.219346 -88.284273 -89.111108 -86.420109 0.000000 0.000000 0.000000 16.762116 2.213298 -2.104141 4.878926 5.888845 -6.914932 -23.466962 32.238032 40.708662 -13.596076 73.813663 16.009718 0.000000 0.000000 0.000000 
